<svg width="22" height="24" viewBox="0 0 22 24" fill="none" xmlns="http://www.w3.org/2000/svg">
<g clip-path="url(#clip0_111_266)">
<path d="M2.66846 12C2.66846 13.1819 2.87552 14.3522 3.27782 15.4442C3.68012 16.5361 4.26979 17.5282 5.01314 18.364C5.7565 19.1997 6.639 19.8626 7.61024 20.3149C8.58148 20.7672 9.62245 21 10.6737 21C11.725 21 12.766 20.7672 13.7372 20.3149C14.7084 19.8626 15.5909 19.1997 16.3343 18.364C17.0777 17.5282 17.6673 16.5361 18.0696 15.4442C18.4719 14.3522 18.679 13.1819 18.679 12C18.679 10.8181 18.4719 9.64778 18.0696 8.55585C17.6673 7.46392 17.0777 6.47177 16.3343 5.63604C15.5909 4.80031 14.7084 4.13738 13.7372 3.68508C12.766 3.23279 11.725 3 10.6737 3C9.62245 3 8.58148 3.23279 7.61024 3.68508C6.639 4.13738 5.7565 4.80031 5.01314 5.63604C4.26979 6.47177 3.68012 7.46392 3.27782 8.55585C2.87552 9.64778 2.66846 10.8181 2.66846 12Z" stroke="#ECB22D" stroke-width="1.5" stroke-linecap="round" stroke-linejoin="round"/>
<path d="M10.6737 12L13.3421 14" stroke="#ECB22D" stroke-width="1.5" stroke-linecap="round" stroke-linejoin="round"/>
<path d="M10.6737 7V12" stroke="#ECB22D" stroke-width="1.5" stroke-linecap="round" stroke-linejoin="round"/>
</g>
<defs>
<clipPath id="clip0_111_266">
<rect width="21.3474" height="24" fill="white"/>
</clipPath>
</defs>
</svg>
