<svg width="16" height="16" viewBox="0 0 16 16" fill="none" xmlns="http://www.w3.org/2000/svg">
<path d="M12.5357 -3.56436e-05H2.89286C1.29576 -3.56436e-05 0 1.29572 0 2.89282V12.5357C0 14.1328 1.29576 15.4285 2.89286 15.4285H8.23661V9.45197H6.22768V7.12162H8.23661V5.40398C8.23661 3.41514 9.46205 2.33032 11.24 2.33032C12.0837 2.33032 12.817 2.39059 13.0279 2.42072V4.49996L11.8025 4.51001C10.8281 4.51001 10.6473 4.96202 10.6473 5.63501V7.12162H12.9475L12.6462 9.45197H10.6473V15.4285H12.5357C14.1328 15.4285 15.4286 14.1328 15.4286 12.5357V2.89282C15.4286 1.29572 14.1328 -3.56436e-05 12.5357 -3.56436e-05Z" fill="#094BCA"/>
</svg>
