<svg width="24" height="15" viewBox="0 0 24 15" fill="none" xmlns="http://www.w3.org/2000/svg">
<path d="M14.4342 7.53345C14.4342 7.0513 14.3839 6.67965 14.3136 6.308H7.36272V8.83925H11.5413C11.3705 9.91403 10.2757 12.0134 7.36272 12.0134C4.85156 12.0134 2.80246 9.93412 2.80246 7.36269C2.80246 4.79126 4.85156 2.71202 7.36272 2.71202C8.79911 2.71202 9.75335 3.32474 10.2958 3.84706L12.2946 1.92854C11.0089 0.723179 9.35156 -3.56436e-05 7.36272 -3.56436e-05C3.29464 -3.56436e-05 0 3.29461 0 7.36269C0 11.4308 3.29464 14.7254 7.36272 14.7254C11.6116 14.7254 14.4342 11.7422 14.4342 7.53345ZM23.1429 6.308H21.0435V4.20867H18.9342V6.308H16.8348V8.41738H18.9342V10.5167H21.0435V8.41738H23.1429V6.308Z" fill="#094BCA"/>
</svg>
