<svg width="16" height="13" viewBox="0 0 16 13" fill="none" xmlns="http://www.w3.org/2000/svg">
<path d="M15.8303 1.52682C15.2477 1.77794 14.6149 1.95874 13.962 2.02905C14.635 1.62727 15.1473 0.994454 15.3883 0.241106C14.7656 0.612757 14.0624 0.883963 13.3292 1.02459C12.7366 0.391775 11.8928 3.45707e-05 10.9587 3.45707e-05C9.16066 3.45707e-05 7.71423 1.45651 7.71423 3.24445C7.71423 3.49557 7.74437 3.74669 7.79459 3.98776C5.10263 3.84713 2.70196 2.56142 1.10486 0.592669C0.823608 1.07481 0.662894 1.62727 0.662894 2.22994C0.662894 3.35494 1.23544 4.34936 2.10932 4.93195C1.57696 4.91186 1.07472 4.7612 0.642805 4.52012C0.642805 4.53017 0.642805 4.55026 0.642805 4.5603C0.642805 6.13731 1.75776 7.44312 3.24437 7.74445C2.97316 7.81477 2.68187 7.85495 2.39057 7.85495C2.17964 7.85495 1.97874 7.83486 1.77785 7.80472C2.18968 9.09044 3.38499 10.0246 4.81133 10.0547C3.69638 10.9286 2.30017 11.4409 0.78343 11.4409C0.512225 11.4409 0.261108 11.4308 -5.22919e-05 11.4007C1.43633 12.3248 3.14392 12.8572 4.98209 12.8572C10.9486 12.8572 14.2131 7.91521 14.2131 3.62615C14.2131 3.48553 14.2131 3.3449 14.2031 3.20428C14.8359 2.74222 15.3883 2.16968 15.8303 1.52682Z" fill="#094BCA"/>
</svg>
