<svg width="22" height="24" viewBox="0 0 22 24" fill="none" xmlns="http://www.w3.org/2000/svg">
<g clip-path="url(#clip0_111_12)">
<path d="M10.6736 3C12.7513 5.06658 15.463 6.14257 18.2342 6C18.6376 7.54302 18.7611 9.16147 18.5972 10.7592C18.4333 12.3569 17.9854 13.9013 17.2801 15.3005C16.5748 16.6998 15.6266 17.9254 14.4917 18.9045C13.3567 19.8836 12.0584 20.5962 10.6736 21C9.28891 20.5962 7.99052 19.8836 6.85561 18.9045C5.7207 17.9254 4.77243 16.6998 4.06715 15.3005C3.36188 13.9013 2.91398 12.3569 2.75009 10.7592C2.5862 9.16147 2.70965 7.54302 3.11311 6C5.88429 6.14257 8.59597 5.06658 10.6736 3Z" stroke="#ECB22D" stroke-width="1.5" stroke-linecap="round" stroke-linejoin="round"/>
<path d="M9.78418 11C9.78418 11.2652 9.87789 11.5196 10.0447 11.7071C10.2115 11.8946 10.4378 12 10.6737 12C10.9096 12 11.1358 11.8946 11.3026 11.7071C11.4694 11.5196 11.5631 11.2652 11.5631 11C11.5631 10.7348 11.4694 10.4804 11.3026 10.2929C11.1358 10.1054 10.9096 10 10.6737 10C10.4378 10 10.2115 10.1054 10.0447 10.2929C9.87789 10.4804 9.78418 10.7348 9.78418 11Z" stroke="#ECB22D" stroke-width="1.5" stroke-linecap="round" stroke-linejoin="round"/>
<path d="M10.6737 12V14.5" stroke="#ECB22D" stroke-width="1.5" stroke-linecap="round" stroke-linejoin="round"/>
</g>
<defs>
<clipPath id="clip0_111_12">
<rect width="21.3474" height="24" fill="white"/>
</clipPath>
</defs>
</svg>
