<svg width="24" height="24" viewBox="0 0 24 24" fill="none" xmlns="http://www.w3.org/2000/svg">
<path fill-rule="evenodd" clip-rule="evenodd" d="M4 0C1.79086 0 0 1.79086 0 4V20C0 22.2091 1.79086 24 4 24H20C22.2091 24 24 22.2091 24 20V4C24 1.79086 22.2091 0 20 0H4ZM15.2327 5.48809C14.3891 5.4496 14.1361 5.44147 12 5.44147C9.86388 5.44147 9.61088 5.4496 8.76728 5.48809C7.98732 5.52369 7.56373 5.65401 7.28183 5.76354C6.90841 5.90867 6.64188 6.08205 6.36195 6.36198C6.08202 6.64191 5.90863 6.90844 5.76354 7.28183C5.65398 7.56376 5.52366 7.98735 5.48806 8.76735C5.44957 9.61091 5.44144 9.86391 5.44144 12C5.44144 14.1361 5.44957 14.3891 5.48806 15.2327C5.52366 16.0127 5.65398 16.4363 5.76354 16.7182C5.90863 17.0916 6.08202 17.3581 6.36195 17.638C6.64188 17.918 6.90841 18.0914 7.28183 18.2365C7.56373 18.346 7.98732 18.4763 8.76731 18.5119C9.61075 18.5504 9.86375 18.5586 12 18.5586C14.1362 18.5586 14.3892 18.5504 15.2327 18.5119C16.0126 18.4763 16.4362 18.346 16.7182 18.2365C17.0916 18.0914 17.3581 17.918 17.638 17.638C17.9179 17.3581 18.0913 17.0916 18.2364 16.7182C18.346 16.4363 18.4763 16.0127 18.5119 15.2327C18.5504 14.3891 18.5585 14.1361 18.5585 12C18.5585 9.86391 18.5504 9.61091 18.5119 8.76731C18.4763 7.98735 18.346 7.56376 18.2364 7.28183C18.0913 6.90844 17.9179 6.64191 17.638 6.36198C17.3581 6.08205 17.0916 5.90867 16.7182 5.76354C16.4362 5.65401 16.0126 5.52369 15.2327 5.48809ZM8.70161 4.04814C9.5549 4.00921 9.8273 4 12 4C14.1727 4 14.4451 4.00921 15.2984 4.04814C16.1499 4.08701 16.7314 4.22223 17.2403 4.42001C17.7664 4.62445 18.2125 4.898 18.6573 5.34274C19.102 5.78748 19.3755 6.23363 19.58 6.7597C19.7778 7.26859 19.913 7.8501 19.9519 8.70164C19.9908 9.5549 20 9.82733 20 12C20 14.1727 19.9908 14.4451 19.9519 15.2984C19.913 16.1499 19.7778 16.7314 19.58 17.2403C19.3755 17.7664 19.102 18.2125 18.6573 18.6573C18.2125 19.102 17.7664 19.3756 17.2403 19.58C16.7314 19.7778 16.1499 19.913 15.2984 19.9519C14.4451 19.9908 14.1727 20 12 20C9.8273 20 9.5549 19.9908 8.70161 19.9519C7.85007 19.913 7.26856 19.7778 6.75966 19.58C6.23359 19.3756 5.78745 19.102 5.34271 18.6573C4.89797 18.2125 4.62442 17.7664 4.41997 17.2403C4.2222 16.7314 4.08698 16.1499 4.04811 15.2984C4.00918 14.4451 4 14.1727 4 12C4 9.82733 4.00918 9.5549 4.04811 8.70164C4.08698 7.8501 4.2222 7.26859 4.41997 6.7597C4.62442 6.23363 4.89797 5.78748 5.34271 5.34274C5.78745 4.898 6.23359 4.62445 6.75966 4.42001C7.26856 4.22223 7.85007 4.08701 8.70161 4.04814ZM7.89186 12C7.89186 9.73117 9.73114 7.89189 12 7.89189C14.2688 7.89189 16.1081 9.73117 16.1081 12C16.1081 14.2689 14.2688 16.1081 12 16.1081C9.73114 16.1081 7.89186 14.2689 7.89186 12ZM9.3333 12C9.3333 13.4728 10.5272 14.6667 12 14.6667C13.4727 14.6667 14.6667 13.4728 14.6667 12C14.6667 10.5273 13.4727 9.33333 12 9.33333C10.5272 9.33333 9.3333 10.5273 9.3333 12ZM16.2704 8.68961C16.8006 8.68961 17.2304 8.25979 17.2304 7.72959C17.2304 7.19939 16.8006 6.7696 16.2704 6.7696C15.7402 6.7696 15.3104 7.19939 15.3104 7.72959C15.3104 8.25979 15.7402 8.68961 16.2704 8.68961Z" fill="white"/>
</svg>
